{"title":"MUSIC FROM ANOTHER ROOM@KIDZCORNER H.264","uid":5054114,"size":944058805,"categoryP":"video","categoryS":"movies","magnet":"?xt=urn:btih:3a39bafc2ababf856273a039ed28829861e15772&amp;dn=MUSIC+FROM+ANOTHER+ROOM%40KIDZCORNER+H.264&amp;tr=udp%3A%2F%2Ftracker.openbittorrent.com%3A80&amp;tr=udp%3A%2F%2Fopen.demonii.com%3A1337&amp;tr=udp%3A%2F%2Ftracker.coppersurfer.tk%3A6969&amp;tr=udp%3A%2F%2Fexodus.desync.com%3A6969","seeders":2,"leechers":2,"uploader":"alanwatson","files":4,"time":1250322286,"description":"]When five year old Danny helps deliver a family friend's baby, Anna, he tells his father that he will one day marry her. But it's not until he moves back to America- twenty five years later- that fate steps in and literally knocks him off his bike- and into the arms of a beautiful grown up Anna (Mol)! And while destiny might be on his side, Danny (Law) discovers that time is not... because Anna is not only sure of her feelings for Danny, but she's also engaged to be married to someone else!\n\nFormat : MPEG-4\nFormat profile : Base Media / Version 2\nCodec ID : mp42\nFile size : 900 MiB\nDuration : 1h 40mn\nOverall bit rate : 1 258 Kbps\nEncoded date : UTC 2009-08-14 22:15:00\nTagged date : UTC 2009-08-15 02:36:26\nWriting application : HandBrake 0.9.3 2008112300\n\nVideo\nID : 1\nFormat : AVC\nFormat/Info : Advanced Video Codec\nFormat profile : &lt;a class=&quot;__cf_email__&quot; href=&quot;/cdn-cgi/l/email-protection&quot; data-cfemail=&quot;591438303719156d7769&quot;&gt;[email&amp;#160;protected]&lt;/a&gt;&lt;script cf-hash='f9e31' type=&quot;text/javascript&quot;&gt;\n/* &lt;![CDATA[ */!function(){try{var t=&quot;currentScript&quot;in document?document.currentScript:function(){for(var t=document.getElementsByTagName(&quot;script&quot;),e=t.length;e--;)if(t[e].getAttribute(&quot;cf-hash&quot;))return t[e]}();if(t&amp;&amp;t.previousSibling){var e,r,n,i,c=t.previousSibling,a=c.getAttribute(&quot;data-cfemail&quot;);if(a){for(e=&quot;&quot;,r=parseInt(a.substr(0,2),16),n=2;a.length-n;n+=2)i=parseInt(a.substr(n,2),16)^r,e+=String.fromCharCode(i);e=document.createTextNode(e),c.parentNode.replaceChild(e,c)}}}catch(u){}}();/* ]]&gt; */&lt;/script&gt;\nFormat settings, CABAC : Yes\nFormat settings, ReFrames : 3 frames\nCodec ID : avc1\nCodec ID/Info : Advanced Video Coding\nDuration : 1h 40mn\nBit rate mode : Variable\nBit rate : 1 094 Kbps\nWidth : 704 pixels\nHeight : 416 pixels\nDisplay aspect ratio : 16/9\nFrame rate mode : Variable\nFrame rate : 25.000 fps\nMinimum frame rate : 12.500 fps\nMaximum frame rate : 25.000 fps\nResolution : 24 bits\nColorimetry : 4:2:0\nScan type : Progressive\nBits/(Pixel*Frame) : 0.149\nStream size : 783 MiB (87%)\n\nAudio\nID : 2\nFormat : AAC\nFormat/Info : Advanced Audio Codec\nFormat version : Version 4\nFormat profile : LC\nFormat settings, SBR : No\nCodec ID : 40\nDuration : 1h 40mn\nBit rate mode : Variable\nBit rate : 160 Kbps\nMaximum bit rate : 219 Kbps\nChannel(s) : 2 channels\nChannel positions : L R\nSampling rate : 48.0 KHz\nResolution : 16 bits\nStream size : 114 MiB (13%)\nLanguage : English\nEncoded date : UTC 2009-08-14 22:15:00\nTagged date : UTC 2009-08-15 02:36:18","torrent":{"xt":"urn:btih:3a39bafc2ababf856273a039ed28829861e15772","amp;dn":"MUSIC+FROM+ANOTHER+ROOM%40KIDZCORNER+H.264","amp;tr":["udp%3A%2F%2Ftracker.openbittorrent.com%3A80","udp%3A%2F%2Fopen.demonii.com%3A1337","udp%3A%2F%2Ftracker.coppersurfer.tk%3A6969","udp%3A%2F%2Fexodus.desync.com%3A6969"],"infoHash":"3a39bafc2ababf856273a039ed28829861e15772","infoHashBuffer":{"type":"Buffer","data":[58,57,186,252,42,186,191,133,98,115,160,57,237,40,130,152,97,225,87,114]},"announce":[],"urlList":[]}}